# xmcd
#
# Track frame offsets: 
#        150
#        19258
#        31027
#        51988
#        75107
#        93584
#        112775
#        129871
#        152752
#        169565
#        184666
#
# Disc length: 2659 seconds
#
# Revision: 0
# Processed by: cddbd v1.5.2PL0 Copyright (c) Steve Scherf et al.
# Submitted via: ExactAudioCopyFreeDBPlugin 1.0
#
DISCID=710a610b
DTITLE=Drink Small  - Hallelujah Boogaloo 
DYEAR=2012
DGENRE=Blues
TTITLE0=Widow Women
TTITLE1=So Sweet
TTITLE2=Motherless Child
TTITLE3=Moanin'
TTITLE4=Women Love A Man That Can Play The Slide
TTITLE5=Song With No Name
TTITLE6=Blues By The Drink
TTITLE7=One Woman
TTITLE8=Greenback
TTITLE9=Coon Dog Blues
TTITLE10=Drink Blues
EXTD=
EXTT0=
EXTT1=
EXTT2=
EXTT3=
EXTT4=
EXTT5=
EXTT6=
EXTT7=
EXTT8=
EXTT9=
EXTT10=
PLAYORDER=
